<?xml version="1.0" encoding="UTF-8"?>
<svg id="Layer_2" data-name="Layer 2" xmlns="http://www.w3.org/2000/svg" viewBox="0 0 716 727">
  <defs>
    <style>
      .cls-1 {
        fill: #f8b657;
      }

      .cls-2 {
        fill: #3d8950;
      }

      .cls-3 {
        fill: #db8c2e;
      }

      .cls-4 {
        fill: #867767;
      }

      .cls-5 {
        fill: #1d1c18;
      }

      .cls-6 {
        fill: #bb3329;
      }
    </style>
  </defs>
  <g id="Layer_1_Image" data-name="Layer 1 Image">
    <g>
      <path class="cls-5" d="M0,377c74.35-97.77,146.39-197.3,219.46-296.04,2.16-19.57-4-35.17,9.12-51.88,19.09-24.3,58.1-35.86,86.77-22.94,11.55,5.2,15.57,14.33,29.89,12.6,19.71-2.38,28.3-10.13,51.98-7.46,27.02,3.04,34.47,19,52.86,33.14,17.41,13.38,38.6,2.92,58.4,4.6,17.48,1.49,36.38,12.15,47.49,25.51,4.8,5.78,8.68,15.51,15.35,18.63,9.57,4.49,18.32,2.11,28.22,2.79,20.84,1.44,40.18,12.98,52.29,29.71,11.39,15.74,7.5,19.64,26.5,30.5,15.58,8.91,29.48,14.55,34.99,34.01l2.68,14.82v1c-1.9,6.13-1.43,13.05-3.28,19.22-2.57,8.54-10.22,18.23-16.21,24.79-9.97,10.94-12.14,8.93-16.8,25.2-10.74,37.55-16.82,83.23-23.95,122.05-3.4,18.51-7.27,36.96-10.48,55.52-6.56,37.94-5.02,82.28-43.62,103.38-166.18,50.84-333.27,100.14-499.69,150.31-22.66,6.83-45.66,12.61-67.98,20.52h-5c-10.88-2.4-20.97-8.92-24.53-20-.63-1.95-.21-3.42-.47-5l-1-42c-.16-22.64.02-45.4,0-68,0-6.06.85-13.33-1-19-.03-21.98.02-44.02,0-66,0-6.4.85-13.97-1-20-.02-16.65.02-33.35,0-50,0-7.08.84-15.27-1-22v-38ZM241,51c-1.73,7.77-.8,15.9-1.01,24.01,15.54,1.18,30.91,4.9,46.02,8.48,111.14,26.37,216.67,75.16,308.73,142.27l3.26.24c-.17-7.66,4.28-17.06,8-23.99,9.27-17.26,24.69-32.62,43-40.02-9.48-20.98-23.36-43.07-48.61-45.88-11.33-1.26-21.25,1.69-32.67-2.33-20.43-7.2-24.33-30.12-43.74-39.26-22.41-10.55-41.34-1.45-63.46-3.54-33.37-3.15-35.85-44.27-81.9-39.86-14.73,1.41-29.1,10.43-44.02,8.77-16.44-1.83-23.42-17.3-42.12-18.87-18.72-1.58-47.1,10.23-51.48,29.98ZM573.99,236.02c-78.38-55.23-165.62-97.07-257.99-123.52-26.6-7.62-53.73-14.51-81.29-17.52L30,370.99l543.99-134.97ZM20,394v22.5c0,.14,1.41,1.92,2.07,1.1l592.46-148.59c7.84-1.4,13.15,4.29,14.4,11.56l-35.42,207.44c-3.32,15.05-12.09,28.03-25.83,35.17-77.35,23.42-155.2,45.29-232.68,68.32-104.07,30.93-207.81,62.97-311.96,93.54-.56,10.62-1.64,23.3,13.01,20.5,180.16-55.12,360.85-108.51,541.73-161.26,42.72-15.35,38.84-41.13,45.46-79.54,9.05-52.44,18.04-105.98,28.99-158.01,2.81-13.36,6.77-35.58,11.24-47.76,5.92-16.12,25.47-22.83,30.82-43.18,4.06-15.44-1.76-36.52-19.88-38.71-30.86-3.73-62.2,40.9-58.52,69.81-32.84,9.12-66.03,16.93-99.11,25.19-9.86,2.47-21.15,4.96-31.63,7.56-136.78,34.02-273.23,70.03-410.33,102.67-18.17,4.33-36.4,8.57-54.83,11.67ZM516,335h14.5c3.06,0,6.72,7.5,6.5,10.5l-.23,101.77c-2.89,10.35-11.83,8.87-20.33,10.67-2.7,11.2,4.74,29.13-7.07,35.92-4.62,2.66-3.44.31-5.19-.75s-6.18-3.05-6.18-5.61v-28.5c-10.23,1.93-19.83,3.4-21.04-9.46-1.16-12.39.98-26.49,0-39.09,4.27-18.62-2.34-44.95,1.28-62.72.97-4.76,5.58-8.94,10.36-9.64,2.88-.42,9.41,1.31,9.41-2.59v-16.5l-244,61v36c9.07-.05,17.41-4.16,21.79,6.71l.26,100.84c-1.24,12.88-11.56,13.04-22.05,13.45v31.5c0,3-6.43,6.56-9.52,6.53-2.85-.02-8.48-4.11-8.48-6.53v-29.5c-9.73,1.19-20.53,3.43-22-9.5-.95-8.32.92-17.05,1.04-24.96.39-25.26-.57-50.55.2-75.8,2.61-10.29,11.88-10.12,20.76-10.74v-34l-214.9,54.1,1.91,226.9,124.99-38v-26c-9.21.71-19.9,3.02-21.05-9.45,3.04-30.62-4.02-69.09.31-98.79,1.74-11.96,10.61-11.97,20.74-12.76v-31.5c0-2.79,6.81-6.45,9.52-6.39,3.02.06,8.48,4.71,8.48,7.39v28.5c9.34-.95,17.28-3.46,20.77,7.73-1.85,31.29,3.24,67.05.28,97.82-1.04,10.77-11.18,15.54-21.05,14.45v23l160.86-48.14,1.14-15.85c-8.56,1.7-18.02,2.98-21.79-6.72,1.17-24.13-2.28-51.01-.25-74.83,1.19-13.94,8.51-18.05,22.04-17.46v-40.5c0-4.25,12.46-9.49,16.23-1.23.29.64,1.77,5.91,1.77,6.23v34.5c6.48-1.72,14.72-2.74,18.83,3.67,3.83,5.96,1.18,7.33,1.13,12.79-.24,23.93.46,47.89-.19,71.81-2.53,9.62-12.52,9.5-20.78,9.72l1.6,12.08c1.53.12,2.97-.21,4.45-.53,45.47-9.96,96.11-29.35,140.72-42.46,19.09-5.61,39.29-9.04,58.22-15.59,11.46-3.97,18.53-8.15,22.78-20.22l34.22-197.27-89.88,23.12.64,18.25-1.75,2.63ZM521,353l-26.95,3.05c-.48,28.64-1.55,57.22-1.06,85.96l28-2v-87ZM260,434l-29.01,1.99c-.43,28.31,1.03,56.84-1,85.01,2.49-.14,5.06.18,7.56.04,4.78-.26,16.81-1.01,20.78-2.21.74-.22,1.23-.73,1.66-1.34v-83.5ZM351,475l-28.01.99c.18,21.38.09,42.74-.99,64.01l26.5-2c.82.03,2.5-.94,2.5-1.5v-61.5ZM171,496l-28,2v85l28-4v-83Z"/>
      <path class="cls-6" d="M516,335l1.75-2.63-.64-18.25,89.88-23.12-34.22,197.27c-4.25,12.07-11.32,16.25-22.78,20.22-18.94,6.55-39.13,9.97-58.22,15.59-44.61,13.11-95.25,32.5-140.72,42.46-1.48.32-2.92.65-4.45.53l-1.6-12.08c8.26-.22,18.24-.11,20.78-9.72.65-23.93-.06-47.88.19-71.81.06-5.46,2.7-6.83-1.13-12.79-4.11-6.41-12.36-5.39-18.83-3.67v-34.5c0-.32-1.48-5.6-1.77-6.23-3.78-8.26-16.23-3.02-16.23,1.23v40.5c-13.53-.59-20.84,3.52-22.04,17.46-2.04,23.82,1.42,50.69.25,74.83,3.77,9.7,13.23,8.42,21.79,6.72l-1.14,15.85-160.86,48.14v-23c9.87,1.09,20.01-3.68,21.05-14.45,2.96-30.77-2.13-66.54-.28-97.82-3.49-11.19-11.43-8.68-20.77-7.73v-28.5c0-2.69-5.46-7.33-8.48-7.39-2.71-.06-9.52,3.6-9.52,6.39v31.5c-10.12.79-18.99.8-20.74,12.76-4.33,29.69,2.73,68.16-.31,98.79,1.15,12.48,11.83,10.16,21.05,9.45v26l-124.99,38-1.91-226.9,214.9-54.1v34c-8.88.62-18.16.45-20.76,10.74-.77,25.25.19,50.55-.2,75.8-.12,7.91-1.99,16.64-1.04,24.96,1.47,12.93,12.27,10.69,22,9.5v29.5c0,2.42,5.63,6.51,8.48,6.53,3.09.03,9.52-3.54,9.52-6.53v-31.5c10.49-.41,20.81-.57,22.05-13.45l-.26-100.84c-4.38-10.87-12.72-6.76-21.79-6.71v-36l244-61v16.5c0,3.91-6.53,2.17-9.41,2.59-4.78.7-9.39,4.88-10.36,9.64-3.62,17.77,2.99,44.1-1.28,62.72.99,12.6-1.15,26.69,0,39.09,1.2,12.86,10.81,11.39,21.04,9.46v28.5c0,2.56,4.5,4.61,6.18,5.61s.58,3.4,5.19.75c11.8-6.79,4.37-24.73,7.07-35.92,8.51-1.8,17.44-.31,20.33-10.67l.23-101.77c.22-3-3.44-10.5-6.5-10.5h-14.5ZM431,382v-17.5c0-.58-2.29-5.33-3.02-5.98-4.56-4.09-14.98-1.77-14.98,4.98v20.5c-9.01-1.37-18.11,1.95-19.76,11.74-1.84,10.94-.63,31.65-.84,43.86-.16,9.89-.28,20.02-.45,29.86-.31,18.09-4.93,37.95,21.04,31.54v28.5c0,.78,2.61,3.82,3.61,4.39,5.62,3.23,14.39-1.37,14.39-7.39v-26.5c8.56-.97,17.18.12,20.57-9.93,1.03-21.85.12-43.75.39-65.61.13-10.39,2.24-21.42,1.04-31.96-1.44-12.65-12.26-10.62-22-10.5Z"/>
      <path class="cls-1" d="M573.99,236.02L30,370.99,234.71,94.98c27.56,3.01,54.69,9.9,81.29,17.52,92.37,26.45,179.62,68.29,257.99,123.52Z"/>
      <path class="cls-1" d="M20,394c18.43-3.1,36.66-7.35,54.83-11.67,137.1-32.64,273.55-68.65,410.33-102.67,10.48-2.61,21.77-5.1,31.63-7.56,33.07-8.27,66.26-16.07,99.11-25.19-3.67-28.91,27.67-73.54,58.52-69.81,18.11,2.19,23.93,23.27,19.88,38.71-5.35,20.36-24.9,27.07-30.82,43.18-4.47,12.17-8.43,34.4-11.24,47.76-10.95,52.03-19.94,105.58-28.99,158.01-6.63,38.4-2.74,64.18-45.46,79.54-180.88,52.75-361.58,106.14-541.73,161.26-14.65,2.8-13.57-9.88-13.01-20.5,104.15-30.57,207.89-62.61,311.96-93.54,77.48-23.03,155.33-44.9,232.68-68.32,13.74-7.14,22.51-20.12,25.83-35.17l35.42-207.44c-1.25-7.28-6.57-12.96-14.4-11.56L22.07,417.6c-.65.82-2.07-.96-2.07-1.1v-22.5Z"/>
      <path class="cls-1" d="M241,51c4.39-19.75,32.77-31.56,51.48-29.98,18.7,1.57,25.68,17.05,42.12,18.87,14.92,1.66,29.29-7.36,44.02-8.77,46.05-4.41,48.52,36.72,81.9,39.86,22.12,2.08,41.05-7.01,63.46,3.54,19.41,9.14,23.32,32.05,43.74,39.26,11.42,4.02,21.34,1.07,32.67,2.33,25.25,2.81,39.12,24.89,48.61,45.88-18.31,7.4-33.73,22.76-43,40.02-13.42-9.4-29.17-15.64-43.31-24.19-26.66-16.12-48.28-44.78-77.25-53.75-11.48-3.55-24.77-5.13-36.46-8.54-23.27-6.81-41.76-20.6-64.99-27.01-17.72-4.89-36.38-5.89-54.21-10.79-10.31-2.83-20.32-7.44-30.57-10.43-19.34-5.64-39-10.25-58.21-16.29Z"/>
      <path class="cls-3" d="M241,51c19.21,6.04,38.88,10.65,58.21,16.29,10.26,2.99,20.26,7.6,30.57,10.43,17.83,4.9,36.49,5.9,54.21,10.79,23.23,6.41,41.72,20.2,64.99,27.01,11.69,3.42,24.98,4.99,36.46,8.54,28.97,8.97,50.59,37.63,77.25,53.75,14.14,8.55,29.88,14.79,43.31,24.19-3.72,6.93-8.17,16.33-8,23.99l-3.26-.24c-92.06-67.11-197.59-115.91-308.73-142.27-15.11-3.58-30.48-7.3-46.02-8.48.21-8.11-.72-16.24,1.01-24.01Z"/>
      <path class="cls-6" d="M260,434v83.5c-.43.6-.93,1.11-1.66,1.34-3.98,1.2-16,1.95-20.78,2.21-2.5.14-5.06-.18-7.56-.04,2.03-28.17.57-56.7,1-85.01l29.01-1.99Z"/>
      <path class="cls-2" d="M521,353v87l-28,2c-.49-28.74.58-57.32,1.06-85.96l26.95-3.05Z"/>
      <polygon class="cls-6" points="171 496 171 579 143 583 143 498 171 496"/>
      <path class="cls-2" d="M351,475v61.5c0,.56-1.68,1.53-2.5,1.5l-26.5,2c1.08-21.27,1.17-42.63.99-64.01l28.01-.99Z"/>
      <path class="cls-4" d="M4,702c-2.18-13.41-.9-28.22-1-42l1,42Z"/>
      <path class="cls-4" d="M2,507c-1.85-6.03-.99-13.6-1-20,1.85,6.03.99,13.6,1,20Z"/>
      <path class="cls-4" d="M3,592c-1.85-5.67-.99-12.94-1-19,1.85,5.67.99,12.94,1,19Z"/>
      <path class="cls-5" d="M431,382c9.74-.12,20.56-2.15,22,10.5,1.2,10.54-.91,21.57-1.04,31.96-.27,21.86.64,43.76-.39,65.61-3.38,10.05-12.01,8.96-20.57,9.93v26.5c0,6.02-8.77,10.61-14.39,7.39-.99-.57-3.61-3.6-3.61-4.39v-28.5c-25.97,6.41-21.35-13.45-21.04-31.54.17-9.84.28-19.97.45-29.86.2-12.21-1-32.92.84-43.86,1.65-9.79,10.75-13.11,19.76-11.74v-20.5c0-6.75,10.42-9.06,14.98-4.98.73.65,3.02,5.4,3.02,5.98v17.5ZM437,401h-23c-.32,0,.54,3.51-5.01,1.99l.02,81c4.03-2.43,27.38-.88,28.03-3.66l-.04-79.33Z"/>
      <path class="cls-2" d="M437,401l.04,79.33c-.65,2.79-24,1.23-28.03,3.66l-.02-81c5.55,1.51,4.68-1.99,5.01-1.99h23Z"/>
    </g>
  </g>
</svg>
